<svg aria-hidden="true" xmlns="http://www.w3.org/2000/svg" xmlns:xlink="http://www.w3.org/1999/xlink"><symbol viewBox="0 0 24 24" id="chat" xmlns="http://www.w3.org/2000/svg">
<path d="M21.25 7.2979V11.722C21.25 13.2389 20.8943 14.288 20.292 14.9808C19.8282 15.5143 19.1605 15.9025 18.2331 16.1033V11.722C18.2331 9.8377 17.7495 8.28697 16.6542 7.21418C15.5618 6.14419 13.9875 5.67412 12.074 5.67412H4.88C5.08553 4.787 5.47811 4.1448 6.0185 3.69483C6.73191 3.10078 7.8125 2.75 9.36386 2.75H16.591C18.2798 2.75 19.41 3.16476 20.1215 3.86167C20.8302 4.55576 21.25 5.65398 21.25 7.2979Z" stroke-width="1.5"/>
<path d="M17.98 10.7759V14.7694C17.98 15.029 17.97 15.2786 17.94 15.5182C17.71 18.2138 16.12 19.5516 13.19 19.5516H12.79C12.54 19.5516 12.3 19.6714 12.15 19.8711L10.95 21.4685C10.42 22.1774 9.56 22.1774 9.03 21.4685L7.82999 19.8711C7.69999 19.7014 7.41 19.5516 7.19 19.5516H6.79001C3.60001 19.5516 2 18.7629 2 14.7694V10.7759C2 7.85064 3.35001 6.26322 6.04001 6.0336C6.28001 6.00364 6.53001 5.99365 6.79001 5.99365H13.19C16.38 5.99365 17.98 7.59107 17.98 10.7759Z" stroke-width="1.5" stroke-miterlimit="10" stroke-linecap="round" stroke-linejoin="round"/>
<path d="M13.4955 13.2316H13.5045" stroke-width="2" stroke-linecap="round" stroke-linejoin="round"/>
<path d="M9.9955 13.2316H10.0045" stroke-width="2" stroke-linecap="round" stroke-linejoin="round"/>
<path d="M6.4955 13.2316H6.5045" stroke-width="2" stroke-linecap="round" stroke-linejoin="round"/>
</symbol><symbol viewBox="0 0 24 24" id="chevron-down" xmlns="http://www.w3.org/2000/svg">
<path fill-rule="evenodd" clip-rule="evenodd" d="M5.29289 9.29338C4.90237 9.68391 4.90237 10.3171 5.29289 10.7076L11.2929 16.7076C11.6834 17.0981 12.3166 17.0981 12.7071 16.7076L18.7071 10.7076C19.0976 10.3171 19.0976 9.68391 18.7071 9.29338C18.3166 8.90286 17.6834 8.90286 17.2929 9.29338L12 14.5863L6.70711 9.29338C6.31658 8.90286 5.68342 8.90286 5.29289 9.29338Z"/>
</symbol><symbol viewBox="0 0 24 24" id="circle-ribbed" xmlns="http://www.w3.org/2000/svg">
<path d="M11.4277 1.68057C11.7066 1.28474 12.2934 1.28474 12.5723 1.68057L13.3441 2.77618C13.8171 3.44765 14.7025 3.68491 15.4479 3.3399L16.6641 2.77698C17.1035 2.5736 17.6117 2.86703 17.6553 3.34924L17.7759 4.68396C17.8498 5.50199 18.498 6.15019 19.316 6.2241L20.6508 6.34469C21.133 6.38826 21.4264 6.89648 21.223 7.33588L20.6601 8.55208C20.3151 9.29747 20.5524 10.1829 21.2238 10.6559L22.3194 11.4277C22.7153 11.7066 22.7153 12.2934 22.3194 12.5723L21.2238 13.3441C20.5523 13.8171 20.3151 14.7025 20.6601 15.4479L21.223 16.6641C21.4264 17.1035 21.133 17.6117 20.6508 17.6553L19.316 17.7759C18.498 17.8498 17.8498 18.498 17.7759 19.316L17.6553 20.6508C17.6117 21.133 17.1035 21.4264 16.6641 21.223L15.4479 20.6601C14.7025 20.3151 13.8171 20.5524 13.3441 21.2238L12.5723 22.3194C12.2934 22.7153 11.7066 22.7153 11.4277 22.3194L10.6559 21.2238C10.1829 20.5523 9.29747 20.3151 8.55208 20.6601L7.33588 21.223C6.89648 21.4264 6.38826 21.133 6.34469 20.6508L6.2241 19.316C6.15019 18.498 5.50199 17.8498 4.68396 17.7759L3.34924 17.6553C2.86702 17.6117 2.5736 17.1035 2.77698 16.6641L3.3399 15.4479C3.68491 14.7025 3.44765 13.8171 2.77618 13.3441L1.68057 12.5723C1.28474 12.2934 1.28474 11.7066 1.68057 11.4277L2.77618 10.6559C3.44765 10.1829 3.68491 9.29746 3.3399 8.55208L2.77698 7.33588C2.5736 6.89648 2.86702 6.38826 3.34924 6.34469L4.68396 6.2241C5.50199 6.15019 6.15019 5.50199 6.2241 4.68396L6.34469 3.34924C6.38826 2.86702 6.89648 2.5736 7.33588 2.77698L8.55208 3.3399C9.29747 3.68491 10.1829 3.44765 10.6559 2.77618L11.4277 1.68057Z"/>
</symbol></svg>