<svg width="24" height="24" viewBox="0 0 24 24" fill="none" xmlns="http://www.w3.org/2000/svg">
<path d="M13.8392 17.525C13.8332 17.527 13.2802 17.711 12.8002 17.711C12.5352 17.711 12.4282 17.656 12.3942 17.632C12.2262 17.515 11.9142 17.296 12.4482 16.232L13.4482 14.238C14.0412 13.054 14.1292 11.909 13.6932 11.013C13.3372 10.28 12.6542 9.777 11.7732 9.597C11.4562 9.532 11.1342 9.5 10.8152 9.5C8.96623 9.5 7.72123 10.58 7.66923 10.626C7.49023 10.784 7.44823 11.046 7.56723 11.252C7.68723 11.458 7.93423 11.552 8.16223 11.474C8.16723 11.472 8.72123 11.287 9.20123 11.287C9.46423 11.287 9.57023 11.342 9.60323 11.365C9.77223 11.483 10.0852 11.705 9.55223 12.767L8.55223 14.762C7.95823 15.947 7.87123 17.092 8.30723 17.987C8.66323 18.72 9.34523 19.223 10.2282 19.403C10.5422 19.466 10.8642 19.5 11.1822 19.5C13.0322 19.5 14.2782 18.42 14.3302 18.374C14.5092 18.217 14.5512 17.954 14.4322 17.748C14.3122 17.543 14.0632 17.451 13.8392 17.525Z" fill="#576081"/>
<path d="M13 8.50098C14.3807 8.50098 15.5 7.38169 15.5 6.00098C15.5 4.62026 14.3807 3.50098 13 3.50098C11.6193 3.50098 10.5 4.62026 10.5 6.00098C10.5 7.38169 11.6193 8.50098 13 8.50098Z" fill="#576081"/>
</svg>
