<svg width="16" height="16" viewBox="0 0 16 16" fill="none" xmlns="http://www.w3.org/2000/svg">
<path d="M14.9843 13.7028L14.9843 13.7028C15.161 13.8795 15.25 14.1114 15.25 14.3437C15.25 14.5755 15.1611 14.8077 14.9845 14.9845C14.8077 15.1619 14.575 15.25 14.3437 15.25C14.1124 15.25 13.8797 15.1619 13.7029 14.9844L9.44177 10.7232C8.542 11.3674 7.44189 11.75 6.25 11.75C3.21262 11.75 0.75 9.28738 0.75 6.25C0.75 3.21263 3.21262 0.75 6.25 0.75C9.28737 0.75 11.75 3.21262 11.75 6.25C11.75 7.44191 11.3674 8.542 10.7233 9.44175L14.9843 13.7028ZM6.25 9.9375C8.28323 9.9375 9.9375 8.28323 9.9375 6.25C9.9375 4.21677 8.28323 2.5625 6.25 2.5625C4.21677 2.5625 2.5625 4.21677 2.5625 6.25C2.5625 8.28323 4.21677 9.9375 6.25 9.9375Z" fill="#576081" stroke="#576081" stroke-width="0.5"/>
</svg>
