<svg width="20" height="20" viewBox="0 0 20 20" fill="none" xmlns="http://www.w3.org/2000/svg">
<path d="M9.45687 3.65702C9.67282 3.19697 10.3272 3.19697 10.5431 3.65703L12.1816 7.14741C12.2665 7.32836 12.436 7.45512 12.6336 7.48549L16.3466 8.05617C16.8292 8.13034 17.0259 8.71905 16.6848 9.06837L13.9616 11.8574C13.8285 11.9937 13.7681 12.1851 13.7988 12.3731L14.4361 16.2803C14.5167 16.7747 13.9919 17.1444 13.5535 16.902L10.2904 15.0975C10.1097 14.9976 9.89032 14.9976 9.70965 15.0975L6.44647 16.902C6.00813 17.1444 5.48331 16.7747 5.56394 16.2803L6.20123 12.3731C6.2319 12.1851 6.17145 11.9937 6.03836 11.8574L3.31522 9.06837C2.97415 8.71905 3.17082 8.13034 3.65337 8.05617L7.36641 7.48549C7.56398 7.45512 7.73345 7.32836 7.8184 7.14741L9.45687 3.65702Z" fill="#576081" stroke="#576081" stroke-linecap="round" stroke-linejoin="round"/>
</svg>
