<svg width="24" height="24" viewBox="0 0 24 24" fill="none" xmlns="http://www.w3.org/2000/svg">
<path d="M15.001 7.29V3C15.001 2.45 14.551 2 14.001 2H10.001C9.45098 2 9.00098 2.45 9.00098 3V7.29C9.00098 7.42 9.05098 7.55 9.15098 7.64L11.651 10.14C11.851 10.34 12.161 10.34 12.361 10.14L14.861 7.64C14.951 7.55 15.001 7.43 15.001 7.29ZM7.29098 9H3.00098C2.45098 9 2.00098 9.45 2.00098 10V14C2.00098 14.55 2.45098 15 3.00098 15H7.29098C7.42098 15 7.55098 14.95 7.64098 14.85L10.141 12.35C10.341 12.15 10.341 11.84 10.141 11.64L7.64098 9.14C7.595 9.09439 7.54032 9.0585 7.4802 9.03444C7.42007 9.01039 7.35572 8.99868 7.29098 9ZM9.00098 16.71V21C9.00098 21.55 9.45098 22 10.001 22H14.001C14.551 22 15.001 21.55 15.001 21V16.71C15.0018 16.6444 14.9888 16.5794 14.963 16.5191C14.9372 16.4588 14.899 16.4046 14.851 16.36L12.351 13.86C12.151 13.66 11.841 13.66 11.641 13.86L9.14098 16.36C9.05098 16.45 9.00098 16.57 9.00098 16.71ZM16.351 9.15L13.851 11.65C13.651 11.85 13.651 12.16 13.851 12.36L16.351 14.86C16.441 14.95 16.571 15.01 16.701 15.01H21.001C21.551 15.01 22.001 14.56 22.001 14.01V10.01C22.001 9.46 21.551 9.01 21.001 9.01H16.711C16.6443 9.00493 16.5774 9.01488 16.5151 9.03911C16.4528 9.06334 16.3967 9.10123 16.351 9.15Z" fill="white"/>
</svg>
