<svg aria-hidden="true" xmlns="http://www.w3.org/2000/svg" xmlns:xlink="http://www.w3.org/1999/xlink"><symbol viewBox="0 0 24 24" id="chat" xmlns="http://www.w3.org/2000/svg">
<path d="M21.25 7.2979V11.722C21.25 13.2389 20.8943 14.288 20.292 14.9808C19.8282 15.5143 19.1605 15.9025 18.2331 16.1033V11.722C18.2331 9.8377 17.7495 8.28697 16.6542 7.21418C15.5618 6.14419 13.9875 5.67412 12.074 5.67412H4.88C5.08553 4.787 5.47811 4.1448 6.0185 3.69483C6.73191 3.10078 7.8125 2.75 9.36386 2.75H16.591C18.2798 2.75 19.41 3.16476 20.1215 3.86167C20.8302 4.55576 21.25 5.65398 21.25 7.2979Z" stroke-width="1.5"/>
<path d="M17.98 10.7759V14.7694C17.98 15.029 17.97 15.2786 17.94 15.5182C17.71 18.2138 16.12 19.5516 13.19 19.5516H12.79C12.54 19.5516 12.3 19.6714 12.15 19.8711L10.95 21.4685C10.42 22.1774 9.56 22.1774 9.03 21.4685L7.82999 19.8711C7.69999 19.7014 7.41 19.5516 7.19 19.5516H6.79001C3.60001 19.5516 2 18.7629 2 14.7694V10.7759C2 7.85064 3.35001 6.26322 6.04001 6.0336C6.28001 6.00364 6.53001 5.99365 6.79001 5.99365H13.19C16.38 5.99365 17.98 7.59107 17.98 10.7759Z" stroke-width="1.5" stroke-miterlimit="10" stroke-linecap="round" stroke-linejoin="round"/>
<path d="M13.4955 13.2316H13.5045" stroke-width="2" stroke-linecap="round" stroke-linejoin="round"/>
<path d="M9.9955 13.2316H10.0045" stroke-width="2" stroke-linecap="round" stroke-linejoin="round"/>
<path d="M6.4955 13.2316H6.5045" stroke-width="2" stroke-linecap="round" stroke-linejoin="round"/>
</symbol><symbol viewBox="0 0 24 24" id="chevron-down" xmlns="http://www.w3.org/2000/svg">
<path fill-rule="evenodd" clip-rule="evenodd" d="M5.29289 9.29338C4.90237 9.68391 4.90237 10.3171 5.29289 10.7076L11.2929 16.7076C11.6834 17.0981 12.3166 17.0981 12.7071 16.7076L18.7071 10.7076C19.0976 10.3171 19.0976 9.68391 18.7071 9.29338C18.3166 8.90286 17.6834 8.90286 17.2929 9.29338L12 14.5863L6.70711 9.29338C6.31658 8.90286 5.68342 8.90286 5.29289 9.29338Z"/>
</symbol><symbol viewBox="0 0 8 14" id="chevron-left" xmlns="http://www.w3.org/2000/svg">
<path d="M7 1L1 7L7 13" stroke-width="2" stroke-linecap="round" stroke-linejoin="round"/>
</symbol><symbol viewBox="0 0 16 16" id="search" xmlns="http://www.w3.org/2000/svg">
<path d="M14.9843 13.7028L14.9843 13.7028C15.161 13.8795 15.25 14.1114 15.25 14.3437C15.25 14.5755 15.1611 14.8077 14.9845 14.9845C14.8077 15.1619 14.575 15.25 14.3437 15.25C14.1124 15.25 13.8797 15.1619 13.7029 14.9844L9.44177 10.7232C8.542 11.3674 7.44189 11.75 6.25 11.75C3.21262 11.75 0.75 9.28738 0.75 6.25C0.75 3.21263 3.21262 0.75 6.25 0.75C9.28737 0.75 11.75 3.21262 11.75 6.25C11.75 7.44191 11.3674 8.542 10.7233 9.44175L14.9843 13.7028ZM6.25 9.9375C8.28323 9.9375 9.9375 8.28323 9.9375 6.25C9.9375 4.21677 8.28323 2.5625 6.25 2.5625C4.21677 2.5625 2.5625 4.21677 2.5625 6.25C2.5625 8.28323 4.21677 9.9375 6.25 9.9375Z" stroke-width="0.5"/>
</symbol></svg>